<svg id="stealth-white" xmlns="http://www.w3.org/2000/svg" width="132.258" height="22.112" viewBox="0 0 132.258 22.112">
  <path id="Path_3088" data-name="Path 3088" d="M10.383,9.425A3.176,3.176,0,0,0,7.248,7.4a2.541,2.541,0,0,0-2.89,2.459c0,.615.215,1.691,2.211,2.491l2.063.83c3.782,1.537,4.827,3.685,4.827,6.025a6.319,6.319,0,0,1-6.609,6.58,6,6,0,0,1-4.827-2.063A6.633,6.633,0,0,1,.3,19.724l3.106-.677a4.422,4.422,0,0,0,.861,2.613A3.234,3.234,0,0,0,6.942,22.89a3.294,3.294,0,0,0,3.381-3.443,3.86,3.86,0,0,0-2.948-3.5L5.4,15.118c-1.691-.713-4.18-2.127-4.18-5.2A5.536,5.536,0,0,1,7.217,4.506a6.043,6.043,0,0,1,4.12,1.384,6.985,6.985,0,0,1,1.568,2.063Z" transform="translate(-0.3 -3.676)" fill="#fff"/>
  <path id="Path_3089" data-name="Path 3089" d="M69.74,8.648V26.2H66.6V8.648H61.9V5.7H74.443V8.648Z" transform="translate(-42.961 -4.502)" fill="#fff"/>
  <path id="Path_3090" data-name="Path 3090" d="M138.014,8.648h-8.177v5.2h7.931v2.948h-7.931v6.456h8.177v2.948H126.7V5.7h11.314Z" transform="translate(-87.84 -4.502)" fill="#fff"/>
  <path id="Path_3091" data-name="Path 3091" d="M194.007,0,183.8,21.705h3.381l6.7-14.85,6.456,14.85h3.381Z" transform="translate(-127.294)" fill="#fff"/>
  <path id="Path_3092" data-name="Path 3092" d="M275.436,5.7V23.254h6.026V26.2H272.3V5.7Z" transform="translate(-188.678 -4.502)" fill="#fff"/>
  <path id="Path_3093" data-name="Path 3093" d="M324.54,8.648V26.2H321.4V8.648h-4.7V5.7h12.543V8.648Z" transform="translate(-219.428 -4.502)" fill="#fff"/>
  <path id="Path_3094" data-name="Path 3094" d="M384.636,13.817h8.792V5.7h3.136V26.205h-3.136V16.772h-8.792v9.433H381.5V5.7h3.137Z" transform="translate(-264.306 -4.502)" fill="#fff"/>
</svg>
